<?xml version="1.0" encoding="utf-8"?>
<!-- Generator: Adobe Illustrator 26.0.2, SVG Export Plug-In . SVG Version: 6.00 Build 0)  -->
<svg version="1.1" id="Layer_1" xmlns="http://www.w3.org/2000/svg" xmlns:xlink="http://www.w3.org/1999/xlink" x="0px" y="0px"
	 viewBox="0 0 541.4 207.7" style="enable-background:new 0 0 541.4 207.7;" xml:space="preserve">
<style type="text/css">
	.st0{fill:#F6316E;}
	.st1{fill:#FD7E2C;}
	.st2{fill:#C80725;}
	.st3{fill:#F1000B;}
	.st4{fill:#FB4940;}
	.st5{fill:#E61863;}
	.st6{fill:#F7184F;}
	.st7{fill:#FEBC2A;}
	.st8{fill:#FB1A2B;}
	.st9{fill:#B4AEA6;}
</style>
<g>
	<path id="XMLID_28_" class="st0" d="M102.1,14.6c-8.6-9-24.5-14.2-40.3-14.2c-1.7,0-3.4,0.1-5,0.2l57.8,36
		C111.1,24.2,106.1,18.7,102.1,14.6z"/>
	<path id="XMLID_27_" class="st1" d="M402.9,57.9l0,50.1l43.1-26l0-47.5l0-0.1c0-1.1,1.9-3.8,4.6-6.5c6-6,12.6-9.2,19.1-9.2
		c9.2,0,13.9,7.7,13.9,22.7l0,17.8l43.8-26.4c0-0.1,0-0.1,0-0.2l0,0c-3.4-19.8-22.4-32-42.7-32c-16.4,0-29.5,7.3-38.8,23.6l-0.1,0.1
		c0,0-0.4-0.8-0.4-0.9c-2.1-4.2-4.9-8-8.4-11.3l-36.5,45.9C401.4,57.9,402.2,57.9,402.9,57.9z"/>
	<path id="XMLID_26_" class="st2" d="M86.3,113.2c-0.6,0.2-1.1,0.3-1.7,0.5c0,0,0,0,0,0c-1,0.3-1.9,0.5-2.8,0.7
		c-0.2,0.1-0.5,0.1-0.7,0.2c-0.4,0.1-0.8,0.2-1.2,0.2c-0.5,0.1-0.9,0.2-1.4,0.2c-0.3,0-0.6,0.1-0.9,0.1c-0.5,0.1-1.1,0.1-1.6,0.2
		c-0.2,0-0.4,0-0.6,0c-0.7,0-1.3,0.1-2,0.1c-0.7,0-1.3,0-2-0.1c-0.1,0-0.2,0-0.3,0c-0.6,0-1.1-0.1-1.7-0.2c-0.1,0-0.1,0-0.2,0
		c-0.6-0.1-1.2-0.2-1.8-0.3c0,0,0,0-0.1,0c-0.6-0.1-1.2-0.2-1.8-0.4C50.4,110.7,42,95.2,42,72.9h0.3h20.6h0.4l-6.3-10.8h-0.4H42
		c0-1.1,0-2.2,0-3.3c0-0.6,0-1.3,0-1.9c0-0.4,0-0.9,0-1.3c0-0.7,0-1.4,0-2.2c0-0.3,0-0.6,0-1c0-0.9,0-1.7,0.1-2.6c0-0.1,0-0.3,0-0.4
		c0-0.9,0.1-1.8,0.1-2.6c0-0.1,0-0.2,0-0.2c0-0.9,0.1-1.7,0.1-2.5c0-0.1,0-0.2,0-0.2c0-0.9,0.1-1.7,0.2-2.5c0,0,0-0.1,0-0.1
		c0.1-0.8,0.1-1.5,0.2-2.3c0-0.3,0.1-0.6,0.1-0.9L27.3,11.1c-0.1,0.1-0.3,0.2-0.4,0.3l0,0c-0.5,0.4-1.1,0.8-1.6,1.2c0,0,0,0-0.1,0.1
		c-0.7,0.5-1.4,1.1-2.1,1.7c-0.1,0.1-0.2,0.2-0.3,0.3c-0.7,0.6-1.4,1.2-2,1.8c-0.1,0.1-0.2,0.2-0.3,0.3c-0.7,0.6-1.3,1.3-2,2
		c0,0,0,0,0,0c-0.7,0.7-1.3,1.4-1.9,2.1c-0.1,0.1-0.2,0.2-0.3,0.3c-0.6,0.7-1.2,1.5-1.8,2.2c0,0,0,0,0,0l0,0
		C5.5,34.9,0.1,50.1,0.1,68c0,37.1,26.6,64.4,59.6,64.4c5.4,0,10.5-0.4,15.2-1.3l0,0c0.1,0,0.2,0,0.2,0c0.9-0.2,1.8-0.4,2.8-0.6
		c0.2-0.1,0.4-0.1,0.7-0.2c0.7-0.2,1.4-0.3,2.1-0.5c0.3-0.1,0.5-0.1,0.8-0.2c0.8-0.2,1.6-0.5,2.4-0.8c0.3-0.1,0.6-0.2,0.9-0.3
		c0.6-0.2,1.2-0.4,1.7-0.6c0.3-0.1,0.6-0.2,0.9-0.4c0.7-0.3,1.5-0.6,2.2-0.9c0.3-0.1,0.7-0.3,1-0.5c0.5-0.2,1-0.5,1.5-0.7
		c0.3-0.2,0.6-0.3,0.9-0.5c0,0,0,0,0.1,0l0,0c0.1,0,0.1-0.1,0.2-0.1l-6.8-11.7C86.5,113.2,86.4,113.2,86.3,113.2z"/>
	<path id="XMLID_25_" class="st0" d="M209,95.5l52.7,32.9h3.3v-7.6c-9.1-0.7-12.1-5.2-12.6-14.2c0-0.2,0-0.4,0-0.6l0,0
		c0-0.4,0-0.7-0.1-1.1c0-0.3,0-0.7,0-1L209,46.1V95.5z"/>
	<path id="XMLID_24_" class="st3" d="M528,103.8v-58l-36.9,82.6h50.2l0.1-7.1C530.7,120.5,528,116,528,103.8z"/>
	<path id="XMLID_23_" class="st1" d="M386.4,115.9c-5.2-1.8-9.6-5.6-12.4-11.5c-1-2-1.5-5.8-1.9-10.6l-18.8,23.6c0,0,0.1,0,0.1,0.1
		l0,0c4.7,3.7,10.5,6.2,17.4,7.8c0.7,0.2,1.5,0.3,2.2,0.5c0.1,0,0.2,0,0.3,0.1l15.4-9.3C387.9,116.3,387.1,116.1,386.4,115.9z"/>
	<path id="XMLID_22_" class="st0" d="M176.8,35.1c0.3-4.3,5.2-10.2,10.3-13.6c0.1-0.1,0.2-0.1,0.3-0.2c0.3-0.2,0.5-0.3,0.8-0.5
		c0.1,0,0.2-0.1,0.2-0.1c0.3-0.2,0.7-0.4,1-0.5c0,0,0,0,0,0l-4.8-6.4c0,0,0,0,0,0l0,0c-0.1,0.1-0.1,0.1-0.2,0.2
		c-0.1,0.1-0.3,0.3-0.4,0.4c-0.5,0.5-1,1.1-1.5,1.7c0,0,0,0,0,0l0,0c-2,2.4-3.9,5.1-5.8,8l-0.2,0.2L176,23
		C169,10.7,156.6,0.4,132.9,0H118v7.4c12,1.6,15.3,5.9,15.3,18.6l0,22.3l43.5,27.1L176.8,35.1z"/>
	<path id="XMLID_21_" class="st4" d="M270.3,18.7c10.4,0,14.5,8.9,14.5,25.7c0,0,0,11.5,0,24.5l19.7,59.2l23.7-90.4
		c-0.5-23.3-14.9-37.1-36.9-37.1c-10.1,0-18.1,2.7-26.3,9.3l3.1,9.2C268.9,18.8,269.6,18.7,270.3,18.7z"/>
	<path id="XMLID_20_" class="st5" d="M120.7,120.7v7.6h68.7v-7.6c-10.1-0.8-12.6-6.2-12.6-17.3l0-28l-43.5-27.1l0,55.1
		C133.4,114.5,130.8,119.9,120.7,120.7z"/>
	<path id="XMLID_19_" class="st5" d="M45.4,24.1C49,15.3,57,11.2,63.2,11.2c2.1,0,4.2,0.4,6.3,1.1c0.5,0.2,0.9,0.4,1.4,0.6
		C70.9,13,71,13,71,13c0.5,0.2,0.9,0.5,1.4,0.8c0,0,0,0,0,0c1,0.6,1.9,1.4,2.8,2.2c1.9,1.9,3.6,4.5,4.8,7.8c1.9,5.5,2.3,18.9,2.3,33
		l0.1,5.2H56.9l6.3,10.8h55.3c0-12.9-1-22.7-2.5-30.4l0,0c0-0.2-0.1-0.3-0.1-0.5c0-0.1-0.1-0.3-0.1-0.4c-0.1-0.5-0.2-0.9-0.3-1.4
		c0-0.1,0-0.2-0.1-0.3c-0.1-0.5-0.2-1-0.4-1.5c0,0,0-0.1,0-0.1c-0.2-0.6-0.3-1.2-0.5-1.8l-57.8-36c-1.2,0.1-2.4,0.2-3.5,0.4
		c0,0,0,0-0.1,0c-0.4,0-0.7,0.1-1.1,0.1l0,0C43,2.5,34.6,6,27.3,11.1l15.6,26.8C43.4,31.7,44.2,26.9,45.4,24.1z"/>
	<path id="XMLID_18_" class="st5" d="M209,103.4c0,11.1-2.5,16.5-12.6,17.3v7.6h65.4L209,95.5V103.4z"/>
	<path id="XMLID_17_" class="st5" d="M117.5,102.4l-6.6-3.8c-6.2,6.3-15.4,11.6-24.3,14.5l6.8,11.7
		C102.4,120,110.2,112.7,117.5,102.4z"/>
	<path id="XMLID_16_" class="st6" d="M284.7,68.9c0,16.3,0,35,0,36.3c0,0.5,0,1-0.1,1.5c0,0.2,0,0.5,0,0.7c0,0.3-0.1,0.6-0.1,0.9
		c0,0.4-0.1,0.9-0.2,1.3c-1,6.9-4.3,10.4-12.2,11v7.6h32.3l0.1-0.3L284.7,68.9z"/>
	<path id="XMLID_15_" class="st6" d="M252.5,102.2l0-67.1l0,0v-0.7c0-3.5,4.2-8.5,8.9-12c0.3-0.2,0.7-0.5,1-0.7
		c0.1-0.1,0.2-0.1,0.2-0.2c0.3-0.2,0.6-0.4,0.9-0.6c0.1-0.1,0.3-0.2,0.4-0.2c0.2-0.1,0.3-0.2,0.5-0.3c0.3-0.2,0.6-0.3,0.9-0.5
		c0.1,0,0.1-0.1,0.2-0.1c0.8-0.4,1.7-0.7,2.5-0.9l0,0c0,0,0,0,0.1,0L265,9.8c0,0-0.1,0.1-0.1,0.1l0,0c-0.2,0.2-0.5,0.4-0.7,0.6
		c-0.3,0.2-0.5,0.5-0.8,0.7c-3.9,3.4-7.9,7.6-12.3,12.9c-8.2-17.1-17.8-23.6-35-23.6c-13.2,0-23,4.1-31.5,13.2l4.8,6.4
		c1.7-0.9,3.4-1.4,4.8-1.4c10.7,0,14.8,6.2,14.8,22.5v4.9l43.5,57.7c0-0.1,0-0.3,0-0.4V102.2z"/>
	<path id="XMLID_14_" class="st7" d="M372.1,93.8L372.1,93.8c-0.1-1.2-0.2-2.4-0.2-3.7c-0.1-2.3-0.1-3.1,0-5.3
		c0.3-6.4,0.9-11.8,2.1-14.3c3.5-7.5,9.6-11.8,16.7-12.4c0.4,0,5-0.1,8.9-0.1c0.3,0,0.7,0,1,0L437,12.1c-0.1-0.1-0.2-0.2-0.3-0.3
		l0,0c-0.2-0.1-0.3-0.3-0.5-0.4c0,0-0.1-0.1-0.1-0.1l0,0c-7.5-6.6-18.3-11-34-11.3h-13.8v6.7c10.6,0,14.5,8.1,14.5,19.7l0,20.9
		c-4.4,0-11.7,0-12.6,0c-16.6,0.5-30.8,4-39,11.7c-5.5,5.2-10.1,14.1-10.3,26v4.7c0.2,11.9,4.8,20.8,10.3,26
		c0.6,0.6,1.3,1.1,1.9,1.7L372.1,93.8C372.1,93.8,372.1,93.8,372.1,93.8z"/>
	<path id="XMLID_13_" class="st7" d="M304.5,128.4h37.4l-0.1-7.7c-8.3-0.4-11.9-3.6-13.2-10.4c-0.1-0.5-0.2-0.9-0.2-1.4
		c0,0,0-0.1,0-0.1c-0.1-0.5-0.1-1-0.1-1.5c0-0.1,0-0.3,0-0.4c0-0.4-0.1-0.9-0.1-1.4c0-0.6,0-1.3,0-2V39c0-0.5,0-0.9,0-1.3
		l-23.7,90.4L304.5,128.4z"/>
	<path id="XMLID_12_" class="st7" d="M351.7,30c1-3.1,6.3-7.5,12.6-6.3c4.4,0.8,8.1,5.7,8.1-1.8c0-6.3,3.9-13,11.1-14.5V1.1
		C376.4,2.6,370,4.3,367,17.9c-13.4-2.6-17.6,6.8-17.8,12.2C349,33.7,349.5,36.4,351.7,30z"/>
	<polygon id="XMLID_11_" class="st6" points="304.4,128.4 304.5,128.4 304.4,128.1 	"/>
	<path id="XMLID_10_" class="st8" d="M528,45.4V39c0-2.2-0.2-4.3-0.5-6.3l-43.8,26.4l0,44.2c0,11.1-2.5,16.5-12.6,17.3v7.6h20.1
		L528,45.8V45.4z"/>
	<path id="XMLID_9_" class="st8" d="M373.5,125.9c4.5,0.9,9.5,1.5,15,1.8c3.1,0.2,9.9,0.7,14.3,0.7h3.1h52.7v-7.6
		c-10.1-0.8-12.6-6.2-12.6-17.3l0-21.4l-43.1,26l0,9.3c0.4,0.1-8.4,0.3-14.1-0.8l-15.4,9.3C373.4,125.8,373.5,125.8,373.5,125.9
		L373.5,125.9z"/>
</g>
<g>
	<g id="XMLID_97_">
		<path id="XMLID_98_" class="st9" d="M27.9,163.5c5.3,0,10,3.4,12.2,7.6l9.6-4.7c-3.7-6.6-10.3-12.8-21.8-12.8
			C12.1,153.6,0,164.5,0,180.7c0,16.1,12.1,27.1,27.9,27.1c11.4,0,18.1-6.3,21.8-12.9l-9.6-4.6c-2.2,4.2-6.9,7.6-12.2,7.6
			c-9.6,0-16.4-7.3-16.4-17.2C11.4,170.8,18.3,163.5,27.9,163.5z M121.8,175H97.2v-20.5H86v52.3h11.1v-22h24.7v22H133v-52.3h-11.2
			V175z M187.7,154.5l-20.1,52.3h12.6l3.3-8.9h22.4l3.3,8.9h12.6l-20.1-52.3H187.7z M186.5,188.1l8.1-22.5l8.1,22.5H186.5z
			 M290.4,187.3l-24.2-32.9h-11.4v52.3h11.1v-34.1l24.9,34.1h10.7v-52.3h-11.1V187.3z M380.4,187.3l-24.2-32.9h-11.4v52.3h11.1
			v-34.1l24.9,34.1h10.7v-52.3h-11.1V187.3z M433.1,206.8h37V197h-25.8v-11.9h25.3v-9.8h-25.3v-11h25.8v-9.8h-37V206.8z M519.3,197
			v-42.5h-11.2v52.3h33.3V197H519.3z"/>
	</g>
</g>
</svg>
