<?xml version="1.0" encoding="UTF-8" standalone="no"?>
<!DOCTYPE svg PUBLIC "-//W3C//DTD SVG 20010904//EN" "http://www.w3.org/TR/2001/REC-SVG-20010904/DTD/svg10.dtd">
<svg version="1.0" xmlns="http://www.w3.org/2000/svg" width="1280.000000pt" height="1280.000000pt" viewBox="0 0 1280.000000 1280.000000" preserveAspectRatio="xMidYMid meet">
<g transform="translate(0.000000,1280.000000) scale(0.100000,-0.100000)" fill="#000000" stroke="none">
<path d="M5990 12789 c-47 -4 -157 -13 -245 -19 -253 -17 -429 -47 -745 -125 -363 -90 -867 -237 -1000 -292 -293 -121 -1001 -506 -1225 -667 -127 -91 -529 -417 -705 -572 -217 -191 -508 -514 -820 -909 -394 -498 -760 -1234 -983 -1975 -134 -442 -199 -787 -232 -1220 -8 -113 -20 -263 -25 -335 -13 -166 -13 -395 0 -560 6 -71 17 -219 25 -329 36 -466 98 -798 229 -1221 41 -132 93 -307 116 -390 49 -177 83 -262 186 -468 210 -419 604 -1046 847 -1346 377 -467 967 -1007 1464 -1339 140 -94 277 -173 628 -365 274 -150 394 -200 790 -330 432 -142 741 -226 912 -246 50 -6 121 -20 156 -31 136 -42 559 -59 1005 -41 666 27 765 32 917 42 249 16 420 37 540 65 372 88 844 238 1134 361 138 59 260 120 526 266 408 222 573 329 845 548 805 646 1397 1367 1824 2219 236 472 402 935 515 1437 76 339 91 452 113 873 29 545 -1 1473 -56 1785 -54 302 -271 999 -428 1375 -58 138 -367 701 -473 860 -112 169 -261 371 -420 570 -312 389 -487 573 -770 810 -110 92 -290 242 -400 335 -131 109 -224 179 -270 202 -38 20 -173 94 -300 166 -409 232 -773 405 -1057 501 -179 61 -608 192 -740 227 -204 54 -537 98 -888 119 -102 6 -240 15 -308 20 -142 12 -557 11 -682 -1z m20 -548 c19 -6 55 -15 78 -21 l44 -11 -5 -1052 c-5 -1188 -9 -1246 -73 -1275 -74 -35 -1079 -66 -1939 -60 -672 3 -651 1 -648 75 6 152 369 776 670 1154 126 157 453 489 603 610 139 112 283 215 405 288 167 101 524 259 655 291 49 11 168 12 210 1z m957 -11 c134 -37 481 -196 653 -300 448 -269 862 -675 1185 -1165 201 -303 429 -716 457 -827 16 -63 7 -71 -90 -80 -177 -16 -1131 -30 -1647 -24 -692 9 -838 20 -870 70 -30 46 -38 217 -31 686 10 730 34 1379 56 1513 5 31 15 69 22 85 29 62 134 78 265 42z m1829 -414 c113 -54 670 -354 779 -419 428 -257 1041 -808 1410 -1267 146 -182 181 -248 139 -264 -8 -3 -93 -11 -187 -17 -189 -12 -899 -6 -957 8 -62 16 -150 146 -375 558 -195 356 -367 626 -557 871 -196 255 -333 454 -359 521 -20 53 10 56 107 9z m-4840 -100 c12 -32 -88 -192 -289 -461 -209 -279 -397 -573 -549 -859 -195 -366 -290 -523 -331 -551 -69 -45 -429 -71 -741 -55 -219 12 -331 31 -361 60 l-20 21 33 63 c98 190 577 692 1002 1052 248 210 614 452 947 626 216 113 295 140 309 104z m7544 -2391 c173 -102 527 -960 694 -1685 58 -254 106 -578 106 -721 0 -63 -4 -82 -23 -110 -12 -19 -34 -39 -48 -46 -69 -33 -362 -53 -794 -53 -445 0 -760 21 -843 55 -67 29 -90 134 -122 570 -32 434 -45 543 -90 735 -16 69 -54 252 -85 408 -59 300 -106 479 -156 596 -62 146 -50 206 43 225 166 33 479 49 923 47 343 -1 362 -2 395 -21z m-9177 -15 c192 -10 240 -19 281 -51 34 -27 34 -59 -3 -151 -123 -308 -310 -1323 -356 -1938 -16 -219 -38 -353 -65 -397 -41 -68 -113 -80 -565 -94 -403 -13 -880 -7 -940 11 -110 33 -120 63 -119 350 1 235 17 397 60 589 28 124 225 744 306 961 65 175 183 420 252 525 110 164 154 185 426 195 271 10 528 10 723 0z m3459 -10 c222 -11 275 -22 291 -59 17 -42 21 -811 8 -1676 -7 -429 -14 -790 -16 -801 -3 -12 -11 -24 -19 -27 -8 -3 -666 -9 -1463 -12 -1521 -8 -1728 -4 -1803 33 l-35 17 -3 130 c-8 352 119 1217 258 1760 88 345 180 579 238 609 15 7 74 17 132 21 296 22 1997 25 2412 5z m3778 -67 c106 -278 175 -522 244 -858 67 -327 135 -776 166 -1098 12 -125 15 -395 5 -449 -14 -71 -38 -79 -345 -100 -255 -18 -2274 -18 -2580 0 -259 15 -394 30 -417 47 -27 20 -32 115 -33 610 0 473 17 1736 26 1843 l6 62 1453 0 1454 0 21 -57z m2479 -3004 c91 -6 183 -17 205 -23 55 -16 65 -47 65 -213 2 -422 -190 -1280 -416 -1863 -140 -359 -323 -644 -440 -685 -76 -26 -332 -36 -848 -33 l-470 3 -3 95 c-4 116 7 177 63 345 117 352 226 998 295 1755 39 435 63 540 129 574 33 18 177 34 391 45 240 12 846 12 1029 0z m-9984 -59 c33 -7 68 -16 77 -21 51 -27 71 -137 113 -609 49 -543 226 -1499 350 -1883 46 -140 55 -215 28 -239 -38 -35 -148 -42 -638 -43 -420 0 -477 2 -535 18 -131 36 -192 98 -312 322 -262 487 -474 1159 -579 1835 -17 109 -23 189 -23 325 -1 260 10 279 181 296 252 27 1210 26 1338 -1z m7575 20 c168 -5 313 -12 322 -15 74 -29 70 -406 -13 -990 -87 -618 -229 -1255 -343 -1538 -34 -83 -108 -215 -130 -229 -6 -4 -648 -8 -1427 -8 -1121 0 -1419 3 -1427 13 -24 30 -35 105 -41 297 -18 504 35 2357 69 2420 5 10 20 20 32 23 116 27 2276 47 2958 27z m-3571 -29 c15 -23 24 -1959 11 -2299 -11 -305 -20 -375 -58 -452 l-17 -35 -890 -3 c-805 -3 -1618 9 -1768 25 -71 7 -95 29 -148 135 -144 286 -310 1010 -399 1742 -29 236 -52 532 -54 681 -1 142 11 186 56 201 55 17 424 21 1796 20 1223 -1 1464 -3 1471 -15z m2556 -3271 c420 -16 581 -32 612 -63 23 -23 -15 -133 -116 -330 -329 -646 -915 -1302 -1482 -1657 -254 -160 -637 -294 -899 -315 -103 -9 -142 10 -153 75 -14 80 -20 1300 -8 1639 14 364 27 556 42 583 14 27 43 35 161 48 252 27 1331 39 1843 20z m2228 0 c230 -15 277 -30 261 -84 -50 -172 -664 -787 -1204 -1206 -142 -111 -320 -229 -460 -305 -69 -38 -210 -119 -315 -180 -231 -137 -295 -169 -375 -191 -56 -16 -62 -16 -77 -1 -23 23 -14 39 134 234 357 470 440 589 600 848 122 199 143 235 253 445 147 281 210 387 235 398 88 40 613 63 948 42z m-4848 -31 c15 -14 30 -43 35 -64 18 -80 22 -602 10 -1255 -7 -371 -15 -738 -19 -815 l-6 -140 -123 -9 c-208 -14 -362 24 -608 153 -355 187 -749 518 -1101 928 -178 208 -333 433 -479 694 -97 174 -137 240 -180 292 -29 34 -47 98 -38 132 16 65 124 75 789 75 528 0 1242 15 1410 29 55 5 142 8 192 7 85 -1 95 -3 118 -27z m-3302 -19 c117 -17 199 -70 262 -169 14 -22 81 -146 150 -276 209 -393 318 -562 640 -990 205 -274 235 -321 220 -344 -45 -73 -552 184 -995 504 -205 148 -435 352 -740 655 -311 310 -480 506 -480 556 0 34 38 54 117 63 99 12 746 12 826 1z"/>
</g>
</svg>