<?xml version="1.0" encoding="UTF-8"?>
<svg width="600px" height="400px" viewBox="0 0 600 400" version="1.1" xmlns="http://www.w3.org/2000/svg" xmlns:xlink="http://www.w3.org/1999/xlink">
    <title>criclife1-new</title>
    <defs>
        <rect id="path-1" x="0" y="0" width="134.218726" height="101.900435"></rect>
    </defs>
    <g id="criclife1-new" stroke="none" stroke-width="1" fill="none" fill-rule="evenodd">
        <rect id="Rectangle" x="0" y="0" width="600" height="400"></rect>
        <g id="CricLife1-Dark-bg" transform="translate(24.000000, 146.000000)">
            <path d="M43.2065713,108.833608 C15.8047737,108.833608 3.1772435e-14,89.9680428 3.1772435e-14,60.5294439 C3.1772435e-14,31.3412531 16.8242923,13.1151227 43.7163306,13.1151227 C65.3833361,13.1151227 80.1685913,25.4790213 83.227147,44.7246702 L65.8930954,44.7246702 C62.4522202,31.8510124 53.7840765,27.6454983 43.5866549,27.6454983 C29.5660387,27.6454983 18.8610937,39.117318 18.8610937,60.5294439 C18.8610937,82.5787689 29.5682745,94.3032326 42.9494558,94.3032326 C53.9092805,94.3032326 62.9597437,89.3330795 65.8908596,76.8417412 L83.2249112,76.8417412 C80.8057904,95.4524268 65.3833361,108.833608 43.2065713,108.833608 Z" id="Path" fill="#FFFFFF" fill-rule="nonzero"></path>
            <path d="M124.779236,55.1747356 C116.113328,55.1747356 110.376301,58.3607312 110.376301,71.234389 L110.376301,107.17689 L92.7873694,107.17689 L92.7873694,38.605323 L110.121421,38.605323 L110.121421,50.586902 C114.072056,42.173638 120.318843,38.7327628 128.220112,38.7327628 C129.36707,38.7327628 130.896348,38.8602026 132.043306,38.9854066 L132.043306,55.5548193 C129.49451,55.3021754 127.328033,55.1747356 124.779236,55.1747356 Z" id="Path" fill="#FFFFFF" fill-rule="nonzero"></path>
            <path d="M263.389047,62.0587218 C262.114649,55.5592909 255.742658,50.7165776 249.113551,50.7165776 C239.937884,50.7165776 232.671578,58.4926426 232.671578,72.7659026 C232.671578,87.1666025 239.553329,95.1975471 249.240991,95.1975471 C255.230663,95.1975471 261.730094,92.1389914 264.02401,83.8531672 L280.848303,83.8531672 C276.770228,102.589057 262.494733,108.835844 248.346676,108.835844 C227.826629,108.835844 214.698092,93.6682693 214.698092,73.0207823 C214.698092,52.1161799 228.591268,37.0782809 249.111315,37.0782809 C263.386811,37.0782809 277.914951,44.9795498 280.211104,62.0587218 L263.389047,62.0587218 L263.389047,62.0587218 Z" id="Path" fill="#FFFFFF" fill-rule="nonzero"></path>
            <polygon id="Path" fill="#E52713" fill-rule="nonzero" points="353.656685 92.3916352 353.656685 107.17689 290.439826 107.17689 290.439826 14.7718404 308.665957 14.7718404 308.665957 92.3916352"></polygon>
            <path d="M377.48346,31.0863734 L359.894529,31.0863734 L359.894529,14.7718404 L377.48346,14.7718404 L377.48346,31.0863734 Z M377.48346,107.17689 L359.894529,107.17689 L359.894529,38.605323 L377.48346,38.605323 L377.48346,107.17689 Z" id="Shape" fill="#E52713" fill-rule="nonzero"></path>
            <path d="M418.952826,14.7718404 L424.944733,14.7718404 L424.944733,27.7707023 L421.503858,27.7707023 C412.835714,27.7707023 411.178997,28.7902209 411.178997,35.2896518 L411.178997,38.6030872 L424.944733,38.6030872 L424.944733,50.7121061 L411.178997,50.7121061 L411.178997,107.174655 L393.590065,107.174655 L393.590065,50.7143418 L383.902403,50.7143418 L383.902403,38.605323 L393.590065,38.605323 L393.590065,34.7821283 C393.590065,17.4480767 401.746214,14.7718404 418.952826,14.7718404 Z" id="Path" fill="#E52713" fill-rule="nonzero"></path>
            <path d="M460.880527,95.1975471 C466.233,95.1975471 471.715148,93.2859498 475.283463,87.2962781 L493.382153,87.2962781 C489.686399,97.4936997 479.616417,108.835844 461.010203,108.835844 C438.960878,108.835844 426.08722,92.393871 426.08722,72.6384628 C426.08722,52.2458555 440.235276,37.0805167 460.500444,37.0805167 C481.65769,37.0805167 494.913667,53.5224895 494.149028,77.7382915 L443.548711,77.7382915 C444.438554,89.4605193 452.596939,95.1975471 460.880527,95.1975471 Z M476.302981,65.6270368 C475.920662,54.0277772 467.764513,49.9497029 460.370768,49.9497029 C453.743897,49.9497029 445.203193,54.155217 443.801355,65.6270368 L476.302981,65.6270368 Z" id="Shape" fill="#E52713" fill-rule="nonzero"></path>
            <g id="Group" transform="translate(128.244705, 0.000000)">
                <g id="Clipped" transform="translate(0.000000, 6.933173)">
                    <mask id="mask-2" fill="white">
                        <use xlink:href="#path-1"></use>
                    </mask>
                    <g id="SVGID_1_"></g>
                    <g id="Group" mask="url(#mask-2)" fill="#FFFFFF">
                        <g transform="translate(13.376710, 5.924834)" id="Path">
                            <path d="M32.8526447,217.729818 L32.7073186,217.729818 C30.2636041,217.729818 27.3704965,214.999923 27.3704965,211.626121 L27.3704965,5.46873342 C27.3704965,2.09493181 29.8052679,-1.58862175e-14 32.2467466,-1.58862175e-14 L32.8504089,-1.58862175e-14 C35.2941234,-1.58862175e-14 37.2683227,2.09493181 37.2683227,5.46873342 L37.2683227,211.626121 C37.2683227,214.999923 34.8335514,217.729818 32.3920727,217.729818 L32.8526447,217.729818 Z"></path>
                            <path d="M59.2125658,217.729818 L59.0672397,217.729818 C56.6235252,217.729818 53.7304176,214.999923 53.7304176,211.626121 L53.7304176,5.46873342 C53.7304176,2.09493181 56.165189,-1.58862175e-14 58.6066677,-1.58862175e-14 L59.21033,-1.58862175e-14 C61.6540445,-1.58862175e-14 63.6282438,2.09493181 63.6282438,5.46873342 L63.6282438,211.626121 C63.6282438,214.999923 61.1934725,217.729818 58.7519938,217.729818 L59.2125658,217.729818 Z"></path>
                            <path d="M5.48214814,217.729818 L5.33682202,217.729818 C2.89310754,217.729818 -3.1772435e-14,214.999923 -3.1772435e-14,211.626121 L-3.1772435e-14,5.46873342 C-3.1772435e-14,2.09493181 2.43477134,-1.58862175e-14 4.87625004,-1.58862175e-14 L5.47991235,-1.58862175e-14 C7.92362683,-1.58862175e-14 9.89782618,2.09493181 9.89782618,5.46873342 L9.89782618,211.626121 C9.89782618,214.999923 7.46305485,217.729818 5.02157615,217.729818 L5.48214814,217.729818 Z"></path>
                        </g>
                    </g>
                </g>
                <path d="M19.0600787,-3.97155438e-15 L39.8305339,-3.97155438e-15 C41.3486328,-3.97155438e-15 42.5760795,1.45102534 42.5760795,3.24859757 L42.5760795,3.68904748 C42.5760795,5.48438392 41.3486328,6.93764505 39.8305339,6.93764505 L19.0600787,6.93764505 C17.5419797,6.93764505 16.314533,5.48661971 16.314533,3.68904748 L16.314533,3.24859757 C16.314533,1.45102534 17.5419797,-3.97155438e-15 19.0600787,-3.97155438e-15 L19.0600787,-3.97155438e-15 Z" id="Path" fill="#E52713"></path>
                <path d="M50.0816143,-3.97155438e-15 L70.8520695,-3.97155438e-15 C72.3701685,-3.97155438e-15 73.5976152,1.45102534 73.5976152,3.24859757 L73.5976152,3.68904748 C73.5976152,5.48438392 72.3701685,6.93764505 70.8520695,6.93764505 L50.0816143,6.93764505 C48.5635154,6.93764505 47.3360687,5.48661971 47.3360687,3.68904748 L47.3360687,3.24859757 C47.3360687,1.45102534 48.5635154,-3.97155438e-15 50.0816143,-3.97155438e-15 L50.0816143,-3.97155438e-15 Z" id="Path" fill="#E52713"></path>
            </g>
            <path d="M552,107.179126 L534.759851,107.179126 L534.759851,39.4705723 L515.272738,39.4705723 L515.272738,27.7282223 C519.019916,27.6454983 521.913023,27.4778143 523.954296,27.2274062 C525.993333,26.9769981 528.077086,26.4784178 530.201083,25.7271936 C532.322844,24.9782051 534.030985,23.8759625 535.32327,22.4182298 C536.613318,20.9627328 537.798285,19.0243061 538.882641,16.6096568 L552,16.6096568 L552,107.179126 L552,107.179126 Z" id="Path" fill="#FFFFFF" fill-rule="nonzero"></path>
        </g>
    </g>
</svg>