<?xml version="1.0" encoding="UTF-8"?>
<svg width="600px" height="400px" viewBox="0 0 600 400" version="1.1" xmlns="http://www.w3.org/2000/svg" xmlns:xlink="http://www.w3.org/1999/xlink">
    <title>criclife2-new</title>
    <defs>
        <rect id="path-1" x="0" y="0" width="126.705963" height="96.1966566"></rect>
    </defs>
    <g id="criclife2-new" stroke="none" stroke-width="1" fill="none" fill-rule="evenodd">
        <rect id="Rectangle" x="0" y="0" width="600" height="400"></rect>
        <g id="CricLife2-Dark-bg" transform="translate(24.000000, 149.000000)">
            <path d="M40.7881254,102.741752 C14.9201168,102.741752 0,84.9321689 0,57.141367 C0,29.5869569 15.8825689,12.3810165 41.2693514,12.3810165 C61.7235673,12.3810165 75.6812321,24.0528578 78.5685882,42.2212502 L62.2047933,42.2212502 C58.9565177,30.0681829 50.773565,26.0980683 41.1469342,26.0980683 C27.9111084,26.0980683 17.8053623,36.9277641 17.8053623,57.141367 C17.8053623,77.9565025 27.913219,89.0247006 40.5454017,89.0247006 C50.8917609,89.0247006 59.4356331,84.332747 62.2026827,72.5405992 L78.5664775,72.5405992 C76.2848753,90.1095698 61.7256779,102.741752 40.7881254,102.741752 Z" id="Path" fill="#FFFFFF" fill-rule="nonzero"></path>
            <path d="M117.79695,52.0863833 C109.616108,52.0863833 104.200205,55.0940459 104.200205,67.2471132 L104.200205,101.177768 L87.5957971,101.177768 L87.5957971,36.4444275 L103.959592,36.4444275 L103.959592,47.7553492 C107.689093,39.8130095 113.586223,36.564734 121.045226,36.564734 C122.127984,36.564734 123.571662,36.6850405 124.654421,36.8032363 L124.654421,52.4451922 C122.248291,52.2066898 120.20308,52.0863833 117.79695,52.0863833 Z" id="Path" fill="#FFFFFF" fill-rule="nonzero"></path>
            <path d="M248.648211,58.585045 C247.445146,52.4494135 241.429821,47.8777664 235.171772,47.8777664 C226.509704,47.8777664 219.650123,55.2185736 219.650123,68.6929018 C219.650123,82.2875365 226.146674,89.8689568 235.292079,89.8689568 C240.946485,89.8689568 247.082116,86.9816007 249.247633,79.1595675 L265.130202,79.1595675 C261.280394,96.8467339 247.803955,102.743863 234.447823,102.743863 C215.076365,102.743863 202.682685,88.4252787 202.682685,68.9335148 C202.682685,49.1990273 215.798204,35.0028601 235.169662,35.0028601 C248.646101,35.0028601 262.361042,42.4618632 264.52867,58.585045 L248.648211,58.585045 L248.648211,58.585045 Z" id="Path" fill="#FFFFFF" fill-rule="nonzero"></path>
            <polygon id="Path" fill="#E52713" fill-rule="nonzero" points="333.863206 87.2201031 333.863206 101.177768 274.184849 101.177768 274.184849 13.945001 291.39079 13.945001 291.39079 87.2201031"></polygon>
            <path d="M356.356301,29.3463439 L339.751893,29.3463439 L339.751893,13.945001 L356.356301,13.945001 L356.356301,29.3463439 Z M356.356301,101.177768 L339.751893,101.177768 L339.751893,36.4444275 L356.356301,36.4444275 L356.356301,101.177768 Z" id="Shape" fill="#E52713" fill-rule="nonzero"></path>
            <path d="M395.504458,13.945001 L401.160975,13.945001 L401.160975,26.2162642 L397.912699,26.2162642 C389.729746,26.2162642 388.165762,27.1787162 388.165762,33.3143478 L388.165762,36.4423168 L401.160975,36.4423168 L401.160975,47.8735451 L388.165762,47.8735451 L388.165762,101.175657 L371.561354,101.175657 L371.561354,47.8756558 L362.415949,47.8756558 L362.415949,36.4444275 L371.561354,36.4444275 L371.561354,32.8352324 C371.559243,16.4714375 379.26097,13.945001 395.504458,13.945001 Z" id="Path" fill="#E52713" fill-rule="nonzero"></path>
            <path d="M435.085297,89.8689568 C440.13817,89.8689568 445.313461,88.0643592 448.682043,82.4099537 L465.767677,82.4099537 C462.278788,92.0365844 452.772464,102.743863 435.207715,102.743863 C414.392579,102.743863 402.239512,87.2222137 402.239512,68.5725953 C402.239512,49.3214444 415.595644,35.0049707 434.726489,35.0049707 C454.699478,35.0049707 467.213465,50.5266201 466.491626,73.386966 L418.721503,73.386966 C419.563648,84.4530535 427.263264,89.8689568 435.085297,89.8689568 Z M449.644495,61.9536271 C449.283575,51.0036248 441.583959,47.1538167 434.604071,47.1538167 C428.348133,47.1538167 420.285487,51.1239313 418.962116,61.9536271 L449.644495,61.9536271 Z" id="Shape" fill="#E52713" fill-rule="nonzero"></path>
            <g id="Group" transform="translate(121.066332, 0.000000)">
                <g id="Clipped" transform="translate(0.000000, 6.545096)">
                    <mask id="mask-2" fill="white">
                        <use xlink:href="#path-1"></use>
                    </mask>
                    <g id="SVGID_1_"></g>
                    <g id="Group" mask="url(#mask-2)" fill="#FFFFFF">
                        <g transform="translate(12.627961, 5.593197)" id="Path">
                            <path d="M31.0158604,205.542603 L30.8786688,205.542603 C28.5717388,205.542603 25.8405702,202.965511 25.8405702,199.780555 L25.8405702,5.16262637 C25.8405702,1.97767004 28.1390576,0 30.4438768,0 L31.0137498,0 C33.3206797,0 35.1843751,1.97767004 35.1843751,5.16262637 L35.1843751,199.780555 C35.1843751,202.965511 32.8858878,205.542603 30.5810685,205.542603 L31.0158604,205.542603 Z"></path>
                            <path d="M55.9003105,205.542603 L55.7631189,205.542603 C53.4561889,205.542603 50.7250203,202.965511 50.7250203,199.780555 L50.7250203,5.16262637 C50.7250203,1.97767004 53.0235076,0 55.3283269,0 L55.8981998,0 C58.2051298,0 60.0688252,1.97767004 60.0688252,5.16262637 L60.0688252,199.780555 C60.0688252,202.965511 57.7703379,205.542603 55.4655186,205.542603 L55.9003105,205.542603 Z"></path>
                            <path d="M5.17529021,205.542603 L5.03809859,205.542603 C2.73116865,205.542603 0,202.965511 0,199.780555 L0,5.16262637 C0,1.97767004 2.29848737,0 4.60330667,0 L5.17317957,0 C7.48010951,0 9.34380496,1.97767004 9.34380496,5.16262637 L9.34380496,199.780555 C9.34380496,202.965511 7.04531759,205.542603 4.74049829,205.542603 L5.17529021,205.542603 Z"></path>
                        </g>
                    </g>
                </g>
                <path d="M17.9953199,0 L37.603169,0 C39.0362938,0 40.1950354,1.36980561 40.1950354,3.06676047 L40.1950354,3.48255663 C40.1950354,5.17740085 39.0362938,6.5493171 37.603169,6.5493171 L17.9953199,6.5493171 C16.5621951,6.5493171 15.4034535,5.17951149 15.4034535,3.48255663 L15.4034535,3.06676047 C15.4034535,1.36980561 16.5621951,0 17.9953199,0 L17.9953199,0 Z" id="Path" fill="#E52713"></path>
                <path d="M47.2804552,0 L66.8883043,0 C68.3214291,0 69.4801707,1.36980561 69.4801707,3.06676047 L69.4801707,3.48255663 C69.4801707,5.17740085 68.3214291,6.5493171 66.8883043,6.5493171 L47.2804552,6.5493171 C45.8473303,6.5493171 44.6885888,5.17951149 44.6885888,3.48255663 L44.6885888,3.06676047 C44.6885888,1.36980561 45.8473303,0 47.2804552,0 L47.2804552,0 Z" id="Path" fill="#E52713"></path>
            </g>
            <path d="M521.927596,14.1476225 C530.655094,14.1476225 537.512564,16.1337351 542.50634,20.101739 C547.498004,24.0739642 549.994892,29.7536974 549.994892,37.1430494 C549.994892,52.0800514 536.039337,68.8659743 508.13034,87.4987076 L552,87.4987076 L552,101.177768 L489.145129,101.177768 L489.145129,87.9693804 C497.241546,81.4432804 503.512259,76.2764327 507.953046,72.4603949 C512.393833,68.6485784 516.857838,64.50117 521.338727,60.0181699 C525.819617,55.5351697 528.983467,51.5671658 530.832388,48.1078262 C532.679198,44.6484866 533.601548,41.2672407 533.601548,37.9640885 C533.601548,34.1902635 532.501904,31.2839117 530.300506,29.2365906 C528.099108,27.1934907 524.994356,26.1719407 520.98625,26.1719407 C516.895829,26.1719407 513.457596,27.5480782 510.665219,30.2982427 C507.874952,33.0526284 506.479819,37.3752199 506.479819,43.2702384 L490.677454,43.2702384 C490.521267,34.5427405 493.311534,27.5079761 499.052475,22.1596134 C504.789196,16.8196932 512.41494,14.1476225 521.927596,14.1476225 Z" id="Path" fill="#FFFFFF" fill-rule="nonzero"></path>
        </g>
    </g>
</svg>