<?xml version="1.0" encoding="UTF-8"?>
<svg width="600px" height="400px" viewBox="0 0 600 400" version="1.1" xmlns="http://www.w3.org/2000/svg" xmlns:xlink="http://www.w3.org/1999/xlink">
    <title>criclifemax2-ondark</title>
    <g id="criclifemax2-ondark" stroke="none" stroke-width="1" fill="none" fill-rule="evenodd">
        <rect id="Rectangle" x="0" y="0" width="600" height="400"></rect>
        <g id="Group-2" transform="translate(30.000000, 165.000000)">
            <polygon id="Path" fill="#FFFFFF" fill-rule="nonzero" points="336.298623 17.2650399 336.298623 69.4805509 327.876299 69.4805509 327.876299 9.56752839 341.995651 9.56752839 357.2892 59.4926311 372.582749 9.56752839 386.702102 9.56752839 386.702102 69.4805509 378.279778 69.4805509 378.279778 17.2650399 361.754047 69.4805509 352.824354 69.4805509"></polygon>
            <g id="Group" transform="translate(0.000000, -0.000000)">
                <path d="M425.610051,42.1406137 L425.610051,41.0678908 C425.610051,32.9644842 421.058227,30.2391882 415.535153,30.2391882 C409.330756,30.2391882 405.706692,33.6313119 405.373279,39.0819038 L397.603286,39.0819038 C398.342595,29.4998792 406.779415,24.1217685 415.448176,24.1217685 C427.683015,24.1217685 433.220585,29.9927519 433.133607,42.4595313 L433.04663,52.7083837 C432.959652,60.1449626 433.380043,65.2766369 434.20633,69.4805509 L426.610292,69.4805509 C426.363856,67.8279778 426.11742,66.0159459 426.030442,63.3631312 C423.305146,67.9149553 418.680841,70.5532737 410.823871,70.5532737 C402.474028,70.5532737 395.530321,65.9289683 395.530321,57.7385842 C395.530321,47.2432955 407.344769,44.1845856 425.610051,42.1261174 M403.880164,57.5791254 C403.880164,61.7975356 407.098333,64.6098091 412.476444,64.6098091 C419.507127,64.6098091 426.189901,61.3916405 426.189901,50.8963518 L426.189901,48.0840783 C412.548925,49.490215 403.880164,51.476202 403.880164,57.5936216" id="Shape" fill="#FFFFFF" fill-rule="nonzero"></path>
                <polygon id="Path" fill="#FFFFFF" fill-rule="nonzero" points="480.289925 69.4805509 471.287751 69.4805509 459.21237 52.5489249 447.238463 69.4805509 438.642184 69.4805509 455.008456 46.590964 439.627929 25.0205364 448.6446 25.0205364 459.458806 40.3140855 470.374487 25.0205364 478.796811 25.0205364 463.677217 46.2720464"></polygon>
                <path d="M28.0212612,70.56777 C10.2488524,70.56777 2.06004176e-14,58.3329307 2.06004176e-14,39.2558589 C2.06004176e-14,20.1787871 10.9011839,8.50930176 28.3401788,8.50930176 C42.38705,8.50930176 51.9690747,16.5257309 53.9550616,29.0070065 L42.7204639,29.0070065 C40.4880406,20.6571636 34.8634936,17.9318676 28.2532013,17.9318676 C19.1640493,17.9318676 12.2203431,25.3684465 12.2203431,39.2558589 C12.2203431,53.1432713 19.1640493,61.1597004 27.8328099,61.1597004 C34.9359749,61.1597004 40.8069582,57.9415318 42.7059676,49.8381252 L53.9405654,49.8381252 C52.3749698,61.8990094 42.3725538,70.5822662 27.9922687,70.5822662" id="Path" fill="#FFFFFF" fill-rule="nonzero"></path>
                <path d="M80.9035999,35.7767577 C75.2790529,35.7767577 71.5680116,37.8497222 71.5680116,46.1850689 L71.5680116,69.4950471 L60.1594588,69.4950471 L60.1594588,25.0350326 L71.3940565,25.0350326 L71.3940565,32.8050254 C73.9598937,27.3544334 78.0043489,25.1220101 83.1360232,25.1220101 C83.8753322,25.1220101 84.8755738,25.2089877 85.6148828,25.281469 L85.6148828,36.023194 C83.9623097,35.8637352 82.556173,35.7767577 80.9035999,35.7767577" id="Path" fill="#FFFFFF" fill-rule="nonzero"></path>
                <path d="M170.780382,40.227108 C169.954095,36.0086978 165.822662,32.8775066 161.517275,32.8775066 C155.57381,32.8775066 150.862527,37.9222034 150.862527,47.1708142 C150.862527,56.419425 155.327374,61.7105581 161.604252,61.7105581 C165.489249,61.7105581 169.707659,59.7245712 171.186277,54.3609568 L182.101957,54.3609568 C179.463639,66.5088186 170.200532,70.5532737 161.024402,70.5532737 C147.71684,70.5532737 139.207538,60.7248128 139.207538,47.330273 C139.207538,33.9357333 148.209712,24.0202948 161.517275,24.0202948 C170.780382,24.0202948 180.188451,29.1374728 181.681566,40.2126117 L170.780382,40.2126117 L170.780382,40.227108 Z" id="Path" fill="#FFFFFF" fill-rule="nonzero"></path>
                <polygon id="Path" fill="#E52713" fill-rule="nonzero" points="229.301764 59.8985262 229.301764 69.4805509 188.32085 69.4805509 188.32085 9.56752839 200.135298 9.56752839 200.135298 59.8985262"></polygon>
                <path d="M244.754772,20.1497946 L233.346219,20.1497946 L233.346219,9.56752839 L244.754772,9.56752839 L244.754772,20.1497946 Z M244.754772,69.4805509 L233.346219,69.4805509 L233.346219,25.0205364 L244.754772,25.0205364 L244.754772,69.4805509 Z" id="Shape" fill="#E52713" fill-rule="nonzero"></path>
                <path d="M271.645325,9.56752839 L275.530321,9.56752839 L275.530321,17.9898526 L273.297898,17.9898526 C267.673351,17.9898526 266.600628,18.6566804 266.600628,22.8605943 L266.600628,25.0060401 L275.530321,25.0060401 L275.530321,32.8630104 L266.600628,32.8630104 L266.600628,69.4660546 L255.192075,69.4660546 L255.192075,32.8630104 L248.915197,32.8630104 L248.915197,25.0060401 L255.192075,25.0060401 L255.192075,22.5271805 C255.192075,11.2925827 260.483209,9.55303213 271.630829,9.55303213" id="Path" fill="#E52713" fill-rule="nonzero"></path>
                <path d="M298.825803,61.7250544 C302.290408,61.7250544 305.856487,60.4783764 308.161392,56.6078763 L319.903358,56.6078763 C317.511476,63.2181686 310.973665,70.56777 298.912781,70.56777 C284.619473,70.56777 276.26963,59.9130225 276.26963,47.0983329 C276.26963,34.2836434 285.44576,24.0492873 298.579367,24.0492873 C311.712974,24.0492873 320.889104,34.7040348 320.396231,50.4034791 L287.591206,50.4034791 C288.171056,57.9995168 293.462189,61.7250544 298.825803,61.7250544 M308.828219,42.5465088 C308.581783,35.0229524 303.29065,32.384634 298.492389,32.384634 C294.201498,32.384634 288.663928,35.1099299 287.750664,42.5465088 L308.828219,42.5465088 Z" id="Shape" fill="#E52713" fill-rule="nonzero"></path>
                <path d="M95.5158251,0 L108.982846,0 C109.968591,0 110.765885,0.942256584 110.765885,2.10195699 L110.765885,2.3918821 C110.765885,3.55158251 109.968591,4.49383909 108.982846,4.49383909 L95.5158251,4.49383909 C94.5300797,4.49383909 93.7327857,3.55158251 93.7327857,2.3918821 L93.7327857,2.10195699 C93.7327857,0.942256584 94.5300797,0 95.5158251,0" id="Path" fill="#E52713"></path>
                <path d="M115.622131,0 L129.089152,0 C130.074897,0 130.872191,0.942256584 130.872191,2.10195699 L130.872191,2.3918821 C130.872191,3.55158251 130.074897,4.49383909 129.089152,4.49383909 L115.622131,4.49383909 C114.636386,4.49383909 113.839092,3.55158251 113.839092,2.3918821 L113.839092,2.10195699 C113.839092,0.942256584 114.636386,0 115.622131,0" id="Path" fill="#E52713"></path>
                <path d="M133.090118,11.872433 C133.090118,9.68349843 131.814448,8.32085045 130.21986,8.32085045 L129.828461,8.32085045 C128.248369,8.32085045 126.668277,9.68349843 126.668277,11.872433 L126.668277,70.5532737 L133.090118,70.5532737 L133.090118,11.872433 L133.090118,11.872433 Z" id="Path" fill="#FFFFFF" fill-rule="nonzero"></path>
                <path d="M115.999034,11.872433 C115.999034,9.68349843 114.723363,8.32085045 113.128775,8.32085045 L112.737376,8.32085045 C111.157284,8.32085045 109.577193,9.68349843 109.577193,11.872433 L109.577193,70.5532737 L115.999034,70.5532737 L115.999034,11.872433 Z" id="Path" fill="#FFFFFF" fill-rule="nonzero"></path>
                <path d="M98.241121,11.872433 C98.241121,9.68349843 96.9654506,8.32085045 95.3708625,8.32085045 L94.9794636,8.32085045 C93.3993718,8.32085045 91.81928,9.68349843 91.81928,11.872433 L91.81928,70.5532737 L98.241121,70.5532737 L98.241121,11.872433 Z" id="Path" fill="#FFFFFF" fill-rule="nonzero"></path>
                <path d="M519.342836,10.7852138 C525.228316,10.7852138 529.910606,12.1333655 533.389708,14.829669 C536.868809,17.5259725 538.60836,21.4399613 538.60836,26.5716357 C538.60836,29.3259241 537.956028,32.1092051 536.665861,34.9069824 C535.375695,37.7192559 533.476685,40.5605219 530.997826,43.4597729 C528.518966,46.3445277 525.503745,49.2582749 521.966659,52.2010147 C518.429572,55.1437545 514.399613,58.1299831 509.862286,61.1452042 L540,61.1452042 L540,70.5387775 L496.830152,70.5387775 L496.830152,61.4641218 C501.526939,57.6805992 505.759845,54.2014979 509.543368,51.0123218 C513.326891,47.8231457 516.530563,44.8514134 519.183378,42.0971249 C521.821696,39.3428364 523.851172,36.7335105 525.257309,34.2836434 C526.663445,31.8337763 527.359266,29.4418942 527.359266,27.1224934 C527.359266,24.5276637 526.60546,22.5271805 525.09785,21.1210437 C523.590239,19.714907 521.444793,19.0190867 518.705001,19.0190867 C517.458323,19.0190867 516.240638,19.2220343 515.051945,19.6279295 C513.863252,20.0338246 512.790529,20.7006523 511.848273,21.6139164 C510.906016,22.5271805 510.152211,23.7448659 509.586857,25.2524764 C509.021503,26.760087 508.731578,28.6011114 508.731578,30.7610534 L497.873883,30.7610534 C497.815898,27.7313361 498.30877,24.9915439 499.338004,22.5416767 C500.367238,20.0918096 501.802368,17.9753564 503.672385,16.2213095 C505.542402,14.4672626 507.803817,13.1191109 510.471128,12.1768543 C513.138439,11.2345977 516.095675,10.7562213 519.342836,10.7562213" id="Path" fill="#FFFFFF" fill-rule="nonzero"></path>
            </g>
        </g>
    </g>
</svg>