<svg width="60" height="60" viewBox="0 0 60 60" fill="none" xmlns="http://www.w3.org/2000/svg">
<rect width="60" height="60" fill="#E9EAEE"/>
<path d="M27.495 16.25C27.495 17.9076 26.8365 19.4973 25.6644 20.6694C24.4923 21.8415 22.9026 22.5 21.245 22.5C19.5874 22.5 17.9977 21.8415 16.8256 20.6694C15.6535 19.4973 14.995 17.9076 14.995 16.25C14.995 14.5924 15.6535 13.0027 16.8256 11.8306C17.9977 10.6585 19.5874 10 21.245 10C22.9026 10 24.4923 10.6585 25.6644 11.8306C26.8365 13.0027 27.495 14.5924 27.495 16.25ZM38.0575 26.3825C37.8231 26.2651 37.5576 26.2243 37.2987 26.266C37.0399 26.3078 36.8007 26.4298 36.615 26.615L27.34 38.39L20.69 31.46C20.4499 31.3001 20.1619 31.2283 19.8748 31.2565C19.5878 31.2848 19.3193 31.4114 19.115 31.615L10 42.5V47.5C10 48.163 10.2634 48.7989 10.7322 49.2678C11.2011 49.7366 11.837 50 12.5 50H47.5C47.8283 50 48.1534 49.9353 48.4567 49.8097C48.76 49.6841 49.0356 49.4999 49.2678 49.2678C49.4999 49.0356 49.6841 48.76 49.8097 48.4567C49.9353 48.1534 50 47.8283 50 47.5V36.25L38.0575 26.3825Z" fill="#202124"/>
</svg>
